<svg xml:space="preserve" viewBox="0 0 100 100" y="0" x="0" xmlns="http://www.w3.org/2000/svg" id="Layer_1" version="1.1" style="height: 100%; width: 100%; background: rgb(241, 242, 243);" width="200px" height="200px"><g class="ldl-scale" style="transform-origin: 50% 50%; transform: rotate(0deg) scale(0.8, 0.8);"><g class="ldl-ani"><g class="ldl-layer"><g class="ldl-ani" style="transform: scale(0.91); transform-origin: 50px 50px; animation: 1.11111s linear -0.666667s infinite normal forwards running breath-8bab6dee-33d4-4bf4-99e4-43d5866df462;">

<path stroke-miterlimit="10" stroke-width="3.5" stroke="#333" fill="#f47e5f" d="M32.792 90.037l-4.743-2.738c-9.915-5.724-11.871-18.866-4.819-24.787l7.161-6.012a10.767 10.767 0 0 0 3.298-4.789l2.308-6.758c2.705-7.918 12.065-7.976 21.216-2.692h0c9.151 5.283 13.781 13.418 8.276 19.72l-4.698 5.378a10.76 10.76 0 0 0-2.499 5.251l-1.626 9.207c-1.6 9.068-13.959 13.944-23.874 8.22z" style="fill: rgb(42, 167, 201); stroke: rgb(4, 40, 77);"></path></g></g><g class="ldl-layer"><g class="ldl-ani" style="transform: scale(0.91); transform-origin: 50px 50px; animation: 1.11111s linear -0.777778s infinite normal forwards running breath-8bab6dee-33d4-4bf4-99e4-43d5866df462;"><path d="M68.032 16.435l6.136 3.542-25.052 43.39-6.136-3.542z" stroke-miterlimit="10" stroke-width="3.49993" stroke="#333" fill="#f7b26a" style="fill: rgb(255, 255, 255); stroke: rgb(4, 40, 77);"></path></g></g><g class="ldl-layer"><g class="ldl-ani" style="transform: scale(0.91); transform-origin: 50px 50px; animation: 1.11111s linear -0.888889s infinite normal forwards running breath-8bab6dee-33d4-4bf4-99e4-43d5866df462;"><circle r="8.484" stroke="#333" fill="#666766" stroke-miterlimit="10" stroke-width="3.5" cy="65.748" cx="43.653" transform="rotate(-60 43.653 65.75)" style="fill: rgb(6, 98, 141); stroke: rgb(4, 40, 77);"></circle></g></g><g class="ldl-layer"><g class="ldl-ani" style="transform: scale(0.91); transform-origin: 50px 50px; animation: 1.11111s linear -1s infinite normal forwards running breath-8bab6dee-33d4-4bf4-99e4-43d5866df462;"><path stroke-miterlimit="10" stroke-width="3.5" stroke="#333" fill="#f7b26a" d="M69.341 26.06l-4.161-2.403c-1.795-1.036-2.683-2.916-2.017-4.272l5.189-10.578c.713-1.454 2.923-1.741 4.847-.63l5.538 3.198c1.924 1.111 2.781 3.168 1.878 4.513l-6.566 9.783c-.841 1.254-2.913 1.425-4.708.389z" style="fill: rgb(255, 255, 255); stroke: rgb(4, 40, 77);"></path></g></g><g class="ldl-layer"><g class="ldl-ani" style="transform: scale(0.91); transform-origin: 50px 50px; animation: 1.11111s linear -1.11111s infinite normal forwards running breath-8bab6dee-33d4-4bf4-99e4-43d5866df462;"><path d="M29.851 75.483l12.272 7.085" stroke-width="3.5" stroke="#333" fill="none" stroke-miterlimit="10" style="stroke: rgb(4, 40, 77);"></path></g></g><metadata xmlns:d="https://loading.io/stock/">

<d:name>band</d:name>
<d:tags>band,guitar,bass,musician,music,musical instrument,composer,player,rock star,pop music</d:tags>
<d:license>by</d:license>
<d:slug>6azdaa</d:slug>
</metadata></g></g></svg>