<svg xmlns="http://www.w3.org/2000/svg" xmlns:xlink="http://www.w3.org/1999/xlink" style="margin:auto;background:#ffffff;display:block;z-index:1;position:relative" width="568" height="308" preserveAspectRatio="xMidYMid" viewBox="0 0 568 308">
<g transform="translate(284,154) scale(1,1) translate(-284,-154)"><defs>
  <path id="path-dbcdix5qgos-1" d="M-35 -35L35 -35L35 35L-35 35Z" fill="none" stroke="inherit" stroke-width="4.333333333333334" transform="scale(0.3)"></path>
  <path id="path-dbcdix5qgos-2" d="M0 -37A37 37 0 0 1 0 37A37 37 0 0 1 0 -37" fill="none" stroke="inherit" stroke-width="4.333333333333334" transform="scale(0.3)"></path>
  <path id="path-dbcdix5qgos-3" d="M0 -34.641L40 34.641L-40 34.641Z" fill="none" stroke="inherit" stroke-width="4.333333333333334" transform="scale(0.3)"></path>
</defs><path id="path0" d="M 66.5986875520274 70.52938978764197
c 0 49.30026701919249 -12.062831291930076 14.160714994874438 -26.223546286804513 14.160714994874438
S 14.15159497841838 119.82965680683446 14.15159497841838 70.52938978764197
s 12.062831291930076 -14.160714994874438 26.223546286804513 -14.160714994874438
S 66.5986875520274 21.229122768449486 66.5986875520274 70.52938978764197
z" fill="none" stroke="none"></path>
<use xlink:href="#path-dbcdix5qgos-3" x="0" y="0" stroke="#5393d3">
  <animateMotion begin="-2.5208032027119853s" dur="10s" keyPoints="0;1" keyTimes="0;1" repeatCount="indefinite" calcMode="linear">
    <mpath xlink:href="#path0"></mpath>
  </animateMotion>
</use><path id="path1" d="M 63.69182313679322 229.90110505412548
c 0 24.688598896481437 -6.0408273895646065 7.091406066010626 -13.132233455575232 7.091406066010626
S 37.427356225642754 254.58970395060692 37.427356225642754 229.90110505412548
s 6.0408273895646065 -7.091406066010626 13.132233455575232 -7.091406066010626
S 63.69182313679322 205.21250615764404 63.69182313679322 229.90110505412548
z" fill="none" stroke="none"></path>
<use xlink:href="#path-dbcdix5qgos-3" x="0" y="0" stroke="#28afdc">
  <animateMotion begin="-4.0055132466225984s" dur="10s" keyPoints="1;0" keyTimes="0;1" repeatCount="indefinite" calcMode="linear">
    <mpath xlink:href="#path1"></mpath>
  </animateMotion>
</use><path id="path2" d="M 121.23929927818682 151.53427876844773
c 0 49.52285217864094 -12.1172936181781 14.224649030035165 -26.341942648213266 14.224649030035165
S 68.5554139817603 201.05713094708867 68.5554139817603 151.53427876844773
s 12.1172936181781 -14.224649030035165 26.341942648213266 -14.224649030035165
S 121.23929927818682 102.0114265898068 121.23929927818682 151.53427876844773
z" fill="none" stroke="none"></path>
<use xlink:href="#path-dbcdix5qgos-2" x="0" y="0" stroke="#5393d3">
  <animateMotion begin="-6.213407262177862s" dur="10s" keyPoints="1;0" keyTimes="0;1" repeatCount="indefinite" calcMode="linear">
    <mpath xlink:href="#path2"></mpath>
  </animateMotion>
</use><path id="path3" d="M 140.1278335708251 67.03425415396029
c 0 27.40952287678089 -6.70658538474426 7.872948060351958 -14.579533445096217 7.872948060351958
S 110.96876668063265 94.44377703074119 110.96876668063265 67.03425415396029
s 6.70658538474426 -7.872948060351958 14.579533445096217 -7.872948060351958
S 140.1278335708251 39.6247312771794 140.1278335708251 67.03425415396029
z" fill="none" stroke="none"></path>
<use xlink:href="#path-dbcdix5qgos-3" x="0" y="0" stroke="#5393d3">
  <animateMotion begin="-3.7409875049216046s" dur="10s" keyPoints="1;0" keyTimes="0;1" repeatCount="indefinite" calcMode="linear">
    <mpath xlink:href="#path3"></mpath>
  </animateMotion>
</use><path id="path4" d="M 177.96128969015172 51.328285213939665
c 0 46.174436311910654 -11.298000374190904 13.262870004484975 -24.56087037867588 13.262870004484975
S 128.83954893279997 97.50272152585032 128.83954893279997 51.328285213939665
s 11.298000374190904 -13.262870004484975 24.56087037867588 -13.262870004484975
S 177.96128969015172 5.1538489020290115 177.96128969015172 51.328285213939665
z" fill="none" stroke="none"></path>
<use xlink:href="#path-dbcdix5qgos-2" x="0" y="0" stroke="#5393d3">
  <animateMotion begin="-7.718572920517874s" dur="10s" keyPoints="0;1" keyTimes="0;1" repeatCount="indefinite" calcMode="linear">
    <mpath xlink:href="#path4"></mpath>
  </animateMotion>
</use><path id="path5" d="M 223.82456536135675 162.00031729048726
c 0 54.80720042247534 -13.410272443797156 15.742493738370577 -29.15276618216773 15.742493738370577
S 165.51903299702127 216.8075177129626 165.51903299702127 162.00031729048726
s 13.410272443797156 -15.742493738370577 29.15276618216773 -15.742493738370577
S 223.82456536135675 107.19311686801191 223.82456536135675 162.00031729048726
z" fill="none" stroke="none"></path>
<use xlink:href="#path-dbcdix5qgos-2" x="0" y="0" stroke="#0f3862">
  <animateMotion begin="-6.027378849627079s" dur="10s" keyPoints="0;1" keyTimes="0;1" repeatCount="indefinite" calcMode="linear">
    <mpath xlink:href="#path5"></mpath>
  </animateMotion>
</use><path id="path6" d="M 243.49712324893693 123.29003892232664
c 0 47.783653716458254 -11.691745058282338 13.725092024940137 -25.416837083222475 13.725092024940137
S 192.66344908249198 171.0736926387849 192.66344908249198 123.29003892232664
s 11.691745058282338 -13.725092024940137 25.416837083222475 -13.725092024940137
S 243.49712324893693 75.50638520586838 243.49712324893693 123.29003892232664
z" fill="none" stroke="none"></path>
<use xlink:href="#path-dbcdix5qgos-2" x="0" y="0" stroke="#0f3862">
  <animateMotion begin="-3.5571756240058527s" dur="10s" keyPoints="1;0" keyTimes="0;1" repeatCount="indefinite" calcMode="linear">
    <mpath xlink:href="#path6"></mpath>
  </animateMotion>
</use><path id="path7" d="M 269.66898297776777 163.07882293556904
c 0 59.39059629390502 -14.531741646381015 17.059001063142933 -31.590742709523948 17.059001063142933
S 206.48749755871987 222.46941922947406 206.48749755871987 163.07882293556904
s 14.531741646381015 -17.059001063142933 31.590742709523948 -17.059001063142933
S 269.66898297776777 103.68822664166402 269.66898297776777 163.07882293556904
z" fill="none" stroke="none"></path>
<use xlink:href="#path-dbcdix5qgos-3" x="0" y="0" stroke="#5393d3">
  <animateMotion begin="-8.575247102924479s" dur="10s" keyPoints="1;0" keyTimes="0;1" repeatCount="indefinite" calcMode="linear">
    <mpath xlink:href="#path7"></mpath>
  </animateMotion>
</use><path id="path8" d="M 295.28324289276514 276.1755125919706
c 0 22.246004457370727 -5.44317130339922 6.389809790946911 -11.832981094346131 6.389809790946911
S 271.6172807040729 298.4215170493413 271.6172807040729 276.1755125919706
s 5.44317130339922 -6.389809790946911 11.832981094346131 -6.389809790946911
S 295.28324289276514 253.92950813459984 295.28324289276514 276.1755125919706
z" fill="none" stroke="none"></path>
<use xlink:href="#path-dbcdix5qgos-3" x="0" y="0" stroke="#28afdc">
  <animateMotion begin="-9.743853271922516s" dur="10s" keyPoints="0;1" keyTimes="0;1" repeatCount="indefinite" calcMode="linear">
    <mpath xlink:href="#path8"></mpath>
  </animateMotion>
</use><path id="path9" d="M 315.20240719325045 183.7863008704451
c 0 44.269972068393564 -10.832014442266509 12.715843040921557 -23.547857483188068 12.715843040921557
S 268.1066922268743 228.05627293883867 268.1066922268743 183.7863008704451
s 10.832014442266509 -12.715843040921557 23.547857483188068 -12.715843040921557
S 315.20240719325045 139.51632880205153 315.20240719325045 183.7863008704451
z" fill="none" stroke="none"></path>
<use xlink:href="#path-dbcdix5qgos-3" x="0" y="0" stroke="#0f3862">
  <animateMotion begin="-9.354945941573536s" dur="10s" keyPoints="1;0" keyTimes="0;1" repeatCount="indefinite" calcMode="linear">
    <mpath xlink:href="#path9"></mpath>
  </animateMotion>
</use><path id="path10" d="M 356.32605685093716 150.1363058520371
c 0 46.974864289517804 -11.49384977296712 13.492780168265751 -24.98662994123287 13.492780168265751
S 306.3527969684714 197.1111701415549 306.3527969684714 150.1363058520371
s 11.49384977296712 -13.492780168265751 24.98662994123287 -13.492780168265751
S 356.32605685093716 103.16144156251931 356.32605685093716 150.1363058520371
z" fill="none" stroke="none"></path>
<use xlink:href="#path-dbcdix5qgos-2" x="0" y="0" stroke="#28afdc">
  <animateMotion begin="-5.498891696714079s" dur="10s" keyPoints="1;0" keyTimes="0;1" repeatCount="indefinite" calcMode="linear">
    <mpath xlink:href="#path10"></mpath>
  </animateMotion>
</use><path id="path11" d="M 376.7936842376793 59.503211656876175
c 0 19.802813021391778 -4.84536914353203 5.68804203805934 -10.53341118159137 5.68804203805934
S 355.7268618744966 79.30602467826796 355.7268618744966 59.503211656876175
s 4.84536914353203 -5.68804203805934 10.53341118159137 -5.68804203805934
S 376.7936842376793 39.7003986354844 376.7936842376793 59.503211656876175
z" fill="none" stroke="none"></path>
<use xlink:href="#path-dbcdix5qgos-2" x="0" y="0" stroke="#0f3862">
  <animateMotion begin="-8.048447305331663s" dur="10s" keyPoints="1;0" keyTimes="0;1" repeatCount="indefinite" calcMode="linear">
    <mpath xlink:href="#path11"></mpath>
  </animateMotion>
</use><path id="path12" d="M 399.21370402251176 124.36686999844433
c 0 49.21395262399035 -12.041711812252958 14.135922562209995 -26.177634374462954 14.135922562209995
S 346.8584352735858 173.58082262243468 346.8584352735858 124.36686999844433
s 12.041711812252958 -14.135922562209995 26.177634374462954 -14.135922562209995
S 399.21370402251176 75.15291737445398 399.21370402251176 124.36686999844433
z" fill="none" stroke="none"></path>
<use xlink:href="#path-dbcdix5qgos-3" x="0" y="0" stroke="#0f3862">
  <animateMotion begin="-1.269552622778063s" dur="10s" keyPoints="0;1" keyTimes="0;1" repeatCount="indefinite" calcMode="linear">
    <mpath xlink:href="#path12"></mpath>
  </animateMotion>
</use><path id="path13" d="M 444.3546107532699 29.898664674714894
c 0 43.39694683064289 -10.61840188409347 12.465080472631469 -23.08348235672494 12.465080472631469
S 398.1876460398201 73.29561150535778 398.1876460398201 29.898664674714894
s 10.61840188409347 -12.465080472631469 23.08348235672494 -12.465080472631469
S 444.3546107532699 -13.498282155927996 444.3546107532699 29.898664674714894
z" fill="none" stroke="none"></path>
<use xlink:href="#path-dbcdix5qgos-2" x="0" y="0" stroke="#28afdc">
  <animateMotion begin="-1.27668631511066s" dur="10s" keyPoints="0;1" keyTimes="0;1" repeatCount="indefinite" calcMode="linear">
    <mpath xlink:href="#path13"></mpath>
  </animateMotion>
</use><path id="path14" d="M 488.2848151688166 32.5407636596976
c 0 60.63428134610751 -14.836047563409283 17.41622974835003 -32.252277311759315 17.41622974835003
S 423.78026054529795 93.17504500580512 423.78026054529795 32.5407636596976
s 14.836047563409283 -17.41622974835003 32.252277311759315 -17.41622974835003
S 488.2848151688166 -28.093517686409903 488.2848151688166 32.5407636596976
z" fill="none" stroke="none"></path>
<use xlink:href="#path-dbcdix5qgos-1" x="0" y="0" stroke="#28afdc">
  <animateMotion begin="-2.1377042225484977s" dur="10s" keyPoints="1;0" keyTimes="0;1" repeatCount="indefinite" calcMode="linear">
    <mpath xlink:href="#path14"></mpath>
  </animateMotion>
</use><path id="path15" d="M 486.2931432884557 29.48773082534954
c 0 25.894608934365845 -6.335914952025685 7.437813204551891 -13.773728156577576 7.437813204551891
S 458.74568697530054 55.382339759715386 458.74568697530054 29.48773082534954
s 6.335914952025685 -7.437813204551891 13.773728156577576 -7.437813204551891
S 486.2931432884557 3.5931218909836957 486.2931432884557 29.48773082534954
z" fill="none" stroke="none"></path>
<use xlink:href="#path-dbcdix5qgos-1" x="0" y="0" stroke="#0f3862">
  <animateMotion begin="-5.7570282590577815s" dur="10s" keyPoints="0;1" keyTimes="0;1" repeatCount="indefinite" calcMode="linear">
    <mpath xlink:href="#path15"></mpath>
  </animateMotion>
</use><path id="path16" d="M 525.6004143169102 126.60101616270792
c 0 25.878681708696682 -6.332017864893868 7.433238363136281 -13.76525622803015 7.433238363136281
S 498.06990186084994 152.4796978714046 498.06990186084994 126.60101616270792
s 6.332017864893868 -7.433238363136281 13.76525622803015 -7.433238363136281
S 525.6004143169102 100.72233445401125 525.6004143169102 126.60101616270792
z" fill="none" stroke="none"></path>
<use xlink:href="#path-dbcdix5qgos-3" x="0" y="0" stroke="#5393d3">
  <animateMotion begin="-2.43830749048328s" dur="10s" keyPoints="1;0" keyTimes="0;1" repeatCount="indefinite" calcMode="linear">
    <mpath xlink:href="#path16"></mpath>
  </animateMotion>
</use><path id="path17" d="M 568.4462381550193 207.19708010038175
c 0 50.75603439890712 -12.419029693349612 14.578860944366939 -26.99789063771655 14.578860944366939
S 514.4504568795862 257.95311449928886 514.4504568795862 207.19708010038175
s 12.419029693349612 -14.578860944366939 26.99789063771655 -14.578860944366939
S 568.4462381550193 156.44104570147465 568.4462381550193 207.19708010038175
z" fill="none" stroke="none"></path>
<use xlink:href="#path-dbcdix5qgos-1" x="0" y="0" stroke="#5393d3">
  <animateMotion begin="-0.8063791393013142s" dur="10s" keyPoints="0;1" keyTimes="0;1" repeatCount="indefinite" calcMode="linear">
    <mpath xlink:href="#path17"></mpath>
  </animateMotion>
</use></g>
</svg>